<mxfile host="Electron" modified="2023-10-28T09:24:11.598Z" agent="Mozilla/5.0 (X11; Linux x86_64) AppleWebKit/537.36 (KHTML, like Gecko) draw.io/22.0.3 Chrome/114.0.5735.289 Electron/25.8.4 Safari/537.36" etag="Xi9YKk3Bu26oH0Kmy8gO" version="22.0.3" type="device">
  <diagram name="第 1 页" id="opAZnuRMvIjc-SCqbArT">
    <mxGraphModel dx="1502" dy="700" grid="1" gridSize="10" guides="1" tooltips="1" connect="1" arrows="1" fold="1" page="0" pageScale="1" pageWidth="827" pageHeight="1169" math="0" shadow="0">
      <root>
        <mxCell id="0" />
        <mxCell id="1" parent="0" />
        <mxCell id="HKzVCvSE7yqwv2zPRG8j-3" value="" style="edgeStyle=none;curved=1;rounded=0;orthogonalLoop=1;jettySize=auto;html=1;fontSize=12;startSize=8;endSize=8;fontFamily=var(--font-sans);" parent="1" source="HKzVCvSE7yqwv2zPRG8j-4" target="HKzVCvSE7yqwv2zPRG8j-2" edge="1">
          <mxGeometry relative="1" as="geometry" />
        </mxCell>
        <mxCell id="HKzVCvSE7yqwv2zPRG8j-1" value="葡萄糖" style="text;html=1;align=center;verticalAlign=middle;resizable=0;points=[];autosize=1;strokeColor=#36393d;fillColor=#eeeeee;fontSize=16;fontFamily=var(--font-sans);" parent="1" vertex="1">
          <mxGeometry x="115" y="18" width="70" height="30" as="geometry" />
        </mxCell>
        <mxCell id="HKzVCvSE7yqwv2zPRG8j-7" value="" style="edgeStyle=none;curved=1;rounded=0;orthogonalLoop=1;jettySize=auto;html=1;fontSize=12;startSize=8;endSize=8;fontFamily=var(--font-sans);" parent="1" source="HKzVCvSE7yqwv2zPRG8j-2" target="HKzVCvSE7yqwv2zPRG8j-6" edge="1">
          <mxGeometry relative="1" as="geometry" />
        </mxCell>
        <mxCell id="HKzVCvSE7yqwv2zPRG8j-2" value="3-磷酸甘油" style="text;html=1;align=center;verticalAlign=middle;resizable=0;points=[];autosize=1;strokeColor=none;fillColor=none;fontSize=16;fontFamily=var(--font-sans);" parent="1" vertex="1">
          <mxGeometry x="100" y="140" width="100" height="30" as="geometry" />
        </mxCell>
        <mxCell id="HKzVCvSE7yqwv2zPRG8j-5" value="" style="edgeStyle=none;curved=1;rounded=0;orthogonalLoop=1;jettySize=auto;html=1;fontSize=12;startSize=8;endSize=8;fontFamily=var(--font-sans);" parent="1" source="HKzVCvSE7yqwv2zPRG8j-1" target="HKzVCvSE7yqwv2zPRG8j-4" edge="1">
          <mxGeometry relative="1" as="geometry">
            <mxPoint x="150" y="48" as="sourcePoint" />
            <mxPoint x="150" y="168" as="targetPoint" />
          </mxGeometry>
        </mxCell>
        <mxCell id="HKzVCvSE7yqwv2zPRG8j-4" value="磷酸二羟丙酮" style="text;html=1;align=center;verticalAlign=middle;resizable=0;points=[];autosize=1;strokeColor=none;fillColor=none;fontSize=16;fontFamily=var(--font-sans);" parent="1" vertex="1">
          <mxGeometry x="90" y="80" width="120" height="30" as="geometry" />
        </mxCell>
        <mxCell id="HKzVCvSE7yqwv2zPRG8j-8" style="edgeStyle=orthogonalEdgeStyle;rounded=0;orthogonalLoop=1;jettySize=auto;html=1;fontSize=12;startSize=8;endSize=8;fontFamily=var(--font-sans);" parent="1" source="HKzVCvSE7yqwv2zPRG8j-6" target="HKzVCvSE7yqwv2zPRG8j-12" edge="1">
          <mxGeometry relative="1" as="geometry">
            <mxPoint x="-50" y="225" as="targetPoint" />
          </mxGeometry>
        </mxCell>
        <mxCell id="HKzVCvSE7yqwv2zPRG8j-14" style="edgeStyle=orthogonalEdgeStyle;rounded=0;orthogonalLoop=1;jettySize=auto;html=1;fontSize=12;startSize=8;endSize=8;fontFamily=var(--font-sans);" parent="1" source="HKzVCvSE7yqwv2zPRG8j-6" target="HKzVCvSE7yqwv2zPRG8j-13" edge="1">
          <mxGeometry relative="1" as="geometry" />
        </mxCell>
        <mxCell id="HKzVCvSE7yqwv2zPRG8j-6" value="磷脂酸&lt;br&gt;（1,2-二脂酰-3-磷酸甘油）" style="text;html=1;align=center;verticalAlign=middle;resizable=0;points=[];autosize=1;fontSize=16;fillColor=#eeeeee;strokeColor=#36393d;fontFamily=var(--font-sans);" parent="1" vertex="1">
          <mxGeometry x="45" y="200" width="210" height="50" as="geometry" />
        </mxCell>
        <mxCell id="HKzVCvSE7yqwv2zPRG8j-10" value="磷脂酶" style="text;html=1;align=center;verticalAlign=middle;resizable=0;points=[];autosize=1;strokeColor=#d79b00;fillColor=#ffe6cc;fontSize=16;rounded=1;fontFamily=var(--font-sans);" parent="1" vertex="1">
          <mxGeometry x="-55" y="190" width="70" height="30" as="geometry" />
        </mxCell>
        <mxCell id="HKzVCvSE7yqwv2zPRG8j-11" value="胞苷酰转移酶" style="text;html=1;align=center;verticalAlign=middle;resizable=0;points=[];autosize=1;strokeColor=#d79b00;fillColor=#ffe6cc;fontSize=16;rounded=1;fontFamily=var(--font-sans);" parent="1" vertex="1">
          <mxGeometry x="280" y="190" width="120" height="30" as="geometry" />
        </mxCell>
        <mxCell id="HKzVCvSE7yqwv2zPRG8j-15" style="edgeStyle=orthogonalEdgeStyle;rounded=0;orthogonalLoop=1;jettySize=auto;html=1;fontSize=12;startSize=8;endSize=8;fontFamily=var(--font-sans);" parent="1" source="HKzVCvSE7yqwv2zPRG8j-12" target="HKzVCvSE7yqwv2zPRG8j-16" edge="1">
          <mxGeometry relative="1" as="geometry">
            <mxPoint x="-60" y="420" as="targetPoint" />
          </mxGeometry>
        </mxCell>
        <mxCell id="HKzVCvSE7yqwv2zPRG8j-19" value="" style="edgeStyle=orthogonalEdgeStyle;rounded=0;orthogonalLoop=1;jettySize=auto;html=1;fontSize=12;startSize=8;endSize=8;fontFamily=var(--font-sans);" parent="1" source="HKzVCvSE7yqwv2zPRG8j-12" target="HKzVCvSE7yqwv2zPRG8j-18" edge="1">
          <mxGeometry relative="1" as="geometry" />
        </mxCell>
        <mxCell id="HKzVCvSE7yqwv2zPRG8j-20" style="edgeStyle=orthogonalEdgeStyle;rounded=0;orthogonalLoop=1;jettySize=auto;html=1;fontSize=12;startSize=8;endSize=8;fontFamily=var(--font-sans);" parent="1" source="HKzVCvSE7yqwv2zPRG8j-12" target="HKzVCvSE7yqwv2zPRG8j-21" edge="1">
          <mxGeometry relative="1" as="geometry">
            <mxPoint x="30" y="370" as="targetPoint" />
          </mxGeometry>
        </mxCell>
        <mxCell id="HKzVCvSE7yqwv2zPRG8j-12" value="1,2-甘油二酯" style="text;html=1;align=center;verticalAlign=middle;resizable=0;points=[];autosize=1;strokeColor=none;fillColor=none;fontSize=16;fontFamily=var(--font-sans);" parent="1" vertex="1">
          <mxGeometry x="-115" y="280" width="110" height="30" as="geometry" />
        </mxCell>
        <mxCell id="HKzVCvSE7yqwv2zPRG8j-23" style="edgeStyle=orthogonalEdgeStyle;rounded=0;orthogonalLoop=1;jettySize=auto;html=1;fontSize=12;startSize=8;endSize=8;fontFamily=var(--font-sans);" parent="1" source="HKzVCvSE7yqwv2zPRG8j-13" target="HKzVCvSE7yqwv2zPRG8j-22" edge="1">
          <mxGeometry relative="1" as="geometry" />
        </mxCell>
        <mxCell id="HKzVCvSE7yqwv2zPRG8j-24" style="edgeStyle=orthogonalEdgeStyle;rounded=0;orthogonalLoop=1;jettySize=auto;html=1;fontSize=12;startSize=8;endSize=8;fontFamily=var(--font-sans);" parent="1" source="HKzVCvSE7yqwv2zPRG8j-13" target="HKzVCvSE7yqwv2zPRG8j-26" edge="1">
          <mxGeometry relative="1" as="geometry">
            <mxPoint x="375" y="370" as="targetPoint" />
          </mxGeometry>
        </mxCell>
        <mxCell id="HKzVCvSE7yqwv2zPRG8j-27" style="edgeStyle=orthogonalEdgeStyle;rounded=0;orthogonalLoop=1;jettySize=auto;html=1;fontSize=12;startSize=8;endSize=8;fontFamily=var(--font-sans);" parent="1" source="HKzVCvSE7yqwv2zPRG8j-13" target="HKzVCvSE7yqwv2zPRG8j-25" edge="1">
          <mxGeometry relative="1" as="geometry" />
        </mxCell>
        <mxCell id="HKzVCvSE7yqwv2zPRG8j-13" value="CDP-甘油二酯" style="text;html=1;align=center;verticalAlign=middle;resizable=0;points=[];autosize=1;strokeColor=none;fillColor=none;fontSize=16;fontFamily=var(--font-sans);" parent="1" vertex="1">
          <mxGeometry x="315" y="280" width="120" height="30" as="geometry" />
        </mxCell>
        <mxCell id="HKzVCvSE7yqwv2zPRG8j-16" value="甘油三酯" style="text;html=1;align=center;verticalAlign=middle;resizable=0;points=[];autosize=1;strokeColor=none;fillColor=none;fontSize=16;fontFamily=var(--font-sans);" parent="1" vertex="1">
          <mxGeometry x="-290" y="280" width="90" height="30" as="geometry" />
        </mxCell>
        <mxCell id="HKzVCvSE7yqwv2zPRG8j-17" value="甘油二酯途径" style="text;html=1;align=center;verticalAlign=middle;resizable=0;points=[];autosize=1;strokeColor=none;fillColor=none;fontSize=18;fontFamily=var(--font-sans);" parent="1" vertex="1">
          <mxGeometry x="-170" y="90" width="130" height="40" as="geometry" />
        </mxCell>
        <mxCell id="HKzVCvSE7yqwv2zPRG8j-18" value="磷脂酰乙醇胺&lt;br&gt;（脑磷脂）" style="text;html=1;align=center;verticalAlign=middle;resizable=0;points=[];autosize=1;strokeColor=#82b366;fillColor=#d5e8d4;fontSize=16;fontFamily=var(--font-sans);" parent="1" vertex="1">
          <mxGeometry y="360" width="120" height="50" as="geometry" />
        </mxCell>
        <mxCell id="HKzVCvSE7yqwv2zPRG8j-21" value="磷脂酰胆碱&lt;br&gt;（卵磷脂）" style="text;html=1;align=center;verticalAlign=middle;resizable=0;points=[];autosize=1;strokeColor=#82b366;fillColor=#d5e8d4;fontSize=16;fontFamily=var(--font-sans);" parent="1" vertex="1">
          <mxGeometry x="-220" y="360" width="100" height="50" as="geometry" />
        </mxCell>
        <mxCell id="HKzVCvSE7yqwv2zPRG8j-22" value="磷脂酰丝氨酸" style="text;html=1;align=center;verticalAlign=middle;resizable=0;points=[];autosize=1;strokeColor=#82b366;fillColor=#d5e8d4;fontSize=16;fontFamily=var(--font-sans);" parent="1" vertex="1">
          <mxGeometry x="190" y="360" width="120" height="30" as="geometry" />
        </mxCell>
        <mxCell id="HKzVCvSE7yqwv2zPRG8j-25" value="磷脂酰肌醇" style="text;html=1;align=center;verticalAlign=middle;resizable=0;points=[];autosize=1;strokeColor=#82b366;fillColor=#d5e8d4;fontSize=16;fontFamily=var(--font-sans);" parent="1" vertex="1">
          <mxGeometry x="325" y="360" width="100" height="30" as="geometry" />
        </mxCell>
        <mxCell id="HKzVCvSE7yqwv2zPRG8j-26" value="二磷脂酰甘油&lt;br&gt;（心磷脂）" style="text;html=1;align=center;verticalAlign=middle;resizable=0;points=[];autosize=1;strokeColor=#82b366;fillColor=#d5e8d4;fontSize=16;fontFamily=var(--font-sans);" parent="1" vertex="1">
          <mxGeometry x="440" y="360" width="120" height="50" as="geometry" />
        </mxCell>
        <mxCell id="HKzVCvSE7yqwv2zPRG8j-41" style="edgeStyle=none;curved=1;rounded=0;orthogonalLoop=1;jettySize=auto;html=1;fontSize=12;startSize=8;endSize=8;fontFamily=var(--font-sans);" parent="1" source="HKzVCvSE7yqwv2zPRG8j-28" target="HKzVCvSE7yqwv2zPRG8j-25" edge="1">
          <mxGeometry relative="1" as="geometry" />
        </mxCell>
        <mxCell id="HKzVCvSE7yqwv2zPRG8j-28" value="肌醇" style="text;html=1;align=center;verticalAlign=middle;resizable=0;points=[];autosize=1;strokeColor=#36393d;fillColor=#eeeeee;fontSize=16;fontFamily=var(--font-sans);" parent="1" vertex="1">
          <mxGeometry x="345" y="440" width="60" height="30" as="geometry" />
        </mxCell>
        <mxCell id="HKzVCvSE7yqwv2zPRG8j-43" style="edgeStyle=none;curved=1;rounded=0;orthogonalLoop=1;jettySize=auto;html=1;fontSize=12;startSize=8;endSize=8;fontFamily=var(--font-sans);" parent="1" source="HKzVCvSE7yqwv2zPRG8j-29" target="HKzVCvSE7yqwv2zPRG8j-26" edge="1">
          <mxGeometry relative="1" as="geometry" />
        </mxCell>
        <mxCell id="HKzVCvSE7yqwv2zPRG8j-29" value="磷脂酰甘油" style="text;html=1;align=center;verticalAlign=middle;resizable=0;points=[];autosize=1;strokeColor=#36393d;fillColor=#eeeeee;fontSize=16;fontFamily=var(--font-sans);" parent="1" vertex="1">
          <mxGeometry x="450" y="440" width="100" height="30" as="geometry" />
        </mxCell>
        <mxCell id="HKzVCvSE7yqwv2zPRG8j-42" style="edgeStyle=none;curved=1;rounded=0;orthogonalLoop=1;jettySize=auto;html=1;fontSize=12;startSize=8;endSize=8;fontFamily=var(--font-sans);" parent="1" source="HKzVCvSE7yqwv2zPRG8j-30" target="HKzVCvSE7yqwv2zPRG8j-22" edge="1">
          <mxGeometry relative="1" as="geometry" />
        </mxCell>
        <mxCell id="HKzVCvSE7yqwv2zPRG8j-30" value="丝氨酸" style="text;html=1;align=center;verticalAlign=middle;resizable=0;points=[];autosize=1;strokeColor=#36393d;fillColor=#eeeeee;fontSize=16;fontFamily=var(--font-sans);" parent="1" vertex="1">
          <mxGeometry x="215" y="500" width="70" height="30" as="geometry" />
        </mxCell>
        <mxCell id="HKzVCvSE7yqwv2zPRG8j-34" style="edgeStyle=none;curved=1;rounded=0;orthogonalLoop=1;jettySize=auto;html=1;fontSize=12;startSize=8;endSize=8;fontFamily=var(--font-sans);" parent="1" source="HKzVCvSE7yqwv2zPRG8j-31" target="HKzVCvSE7yqwv2zPRG8j-18" edge="1">
          <mxGeometry relative="1" as="geometry" />
        </mxCell>
        <mxCell id="HKzVCvSE7yqwv2zPRG8j-31" value="CDP-乙醇胺" style="text;html=1;align=center;verticalAlign=middle;resizable=0;points=[];autosize=1;strokeColor=none;fillColor=none;fontSize=16;fontFamily=var(--font-sans);" parent="1" vertex="1">
          <mxGeometry x="5" y="440" width="110" height="30" as="geometry" />
        </mxCell>
        <mxCell id="HKzVCvSE7yqwv2zPRG8j-33" style="edgeStyle=none;curved=1;rounded=0;orthogonalLoop=1;jettySize=auto;html=1;fontSize=12;startSize=8;endSize=8;fontFamily=var(--font-sans);" parent="1" source="HKzVCvSE7yqwv2zPRG8j-32" target="HKzVCvSE7yqwv2zPRG8j-21" edge="1">
          <mxGeometry relative="1" as="geometry" />
        </mxCell>
        <mxCell id="HKzVCvSE7yqwv2zPRG8j-32" value="CDP-胆碱" style="text;html=1;align=center;verticalAlign=middle;resizable=0;points=[];autosize=1;strokeColor=none;fillColor=none;fontSize=16;fontFamily=var(--font-sans);" parent="1" vertex="1">
          <mxGeometry x="-215" y="440" width="90" height="30" as="geometry" />
        </mxCell>
        <mxCell id="HKzVCvSE7yqwv2zPRG8j-36" style="edgeStyle=none;curved=1;rounded=0;orthogonalLoop=1;jettySize=auto;html=1;fontSize=12;startSize=8;endSize=8;fontFamily=var(--font-sans);" parent="1" source="HKzVCvSE7yqwv2zPRG8j-35" target="HKzVCvSE7yqwv2zPRG8j-31" edge="1">
          <mxGeometry relative="1" as="geometry" />
        </mxCell>
        <mxCell id="HKzVCvSE7yqwv2zPRG8j-39" style="edgeStyle=none;curved=1;rounded=0;orthogonalLoop=1;jettySize=auto;html=1;fontSize=12;startSize=8;endSize=8;fontFamily=var(--font-sans);" parent="1" source="HKzVCvSE7yqwv2zPRG8j-35" target="HKzVCvSE7yqwv2zPRG8j-37" edge="1">
          <mxGeometry relative="1" as="geometry" />
        </mxCell>
        <mxCell id="HKzVCvSE7yqwv2zPRG8j-35" value="乙醇胺" style="text;html=1;align=center;verticalAlign=middle;resizable=0;points=[];autosize=1;strokeColor=#36393d;fillColor=#eeeeee;fontSize=16;fontFamily=var(--font-sans);" parent="1" vertex="1">
          <mxGeometry x="25" y="500" width="70" height="30" as="geometry" />
        </mxCell>
        <mxCell id="HKzVCvSE7yqwv2zPRG8j-38" style="edgeStyle=none;curved=1;rounded=0;orthogonalLoop=1;jettySize=auto;html=1;fontSize=12;startSize=8;endSize=8;fontFamily=var(--font-sans);" parent="1" source="HKzVCvSE7yqwv2zPRG8j-37" target="HKzVCvSE7yqwv2zPRG8j-32" edge="1">
          <mxGeometry relative="1" as="geometry" />
        </mxCell>
        <mxCell id="HKzVCvSE7yqwv2zPRG8j-37" value="胆碱" style="text;html=1;align=center;verticalAlign=middle;resizable=0;points=[];autosize=1;strokeColor=#36393d;fillColor=#eeeeee;fontSize=16;fontFamily=var(--font-sans);" parent="1" vertex="1">
          <mxGeometry x="-200" y="500" width="60" height="30" as="geometry" />
        </mxCell>
        <mxCell id="HKzVCvSE7yqwv2zPRG8j-44" value="脱羧" style="text;html=1;align=center;verticalAlign=middle;resizable=0;points=[];autosize=1;strokeColor=none;fillColor=none;fontSize=16;fontFamily=var(--font-sans);" parent="1" vertex="1">
          <mxGeometry x="125" y="488" width="60" height="30" as="geometry" />
        </mxCell>
        <mxCell id="HKzVCvSE7yqwv2zPRG8j-45" value="甲基化" style="text;html=1;align=center;verticalAlign=middle;resizable=0;points=[];autosize=1;strokeColor=none;fillColor=none;fontSize=16;fontFamily=var(--font-sans);" parent="1" vertex="1">
          <mxGeometry x="-95" y="488" width="70" height="30" as="geometry" />
        </mxCell>
        <mxCell id="HKzVCvSE7yqwv2zPRG8j-49" value="3 S-腺苷甲硫氨酸" style="text;html=1;align=center;verticalAlign=middle;resizable=0;points=[];autosize=1;strokeColor=none;fillColor=none;fontSize=16;fontFamily=var(--font-sans);" parent="1" vertex="1">
          <mxGeometry x="-135" y="518" width="150" height="30" as="geometry" />
        </mxCell>
        <mxCell id="HKzVCvSE7yqwv2zPRG8j-57" value="" style="edgeStyle=none;curved=1;rounded=0;orthogonalLoop=1;jettySize=auto;html=1;fontSize=12;startSize=8;endSize=8;entryX=-0.001;entryY=0.398;entryDx=0;entryDy=0;endArrow=none;endFill=0;exitX=1.001;exitY=0.398;exitDx=0;exitDy=0;startArrow=async;startFill=1;fontFamily=var(--font-sans);entryPerimeter=0;exitPerimeter=0;" parent="1" source="HKzVCvSE7yqwv2zPRG8j-35" target="HKzVCvSE7yqwv2zPRG8j-30" edge="1">
          <mxGeometry relative="1" as="geometry">
            <mxPoint x="90" y="512.89" as="sourcePoint" />
            <mxPoint x="220" y="512.89" as="targetPoint" />
          </mxGeometry>
        </mxCell>
        <mxCell id="HKzVCvSE7yqwv2zPRG8j-58" style="edgeStyle=none;curved=1;rounded=0;orthogonalLoop=1;jettySize=auto;html=1;fontSize=12;startSize=8;endSize=8;endArrow=none;endFill=0;startArrow=async;startFill=1;fontFamily=var(--font-sans);entryX=1.005;entryY=0.601;entryDx=0;entryDy=0;entryPerimeter=0;exitX=-0.001;exitY=0.601;exitDx=0;exitDy=0;exitPerimeter=0;" parent="1" source="HKzVCvSE7yqwv2zPRG8j-30" target="HKzVCvSE7yqwv2zPRG8j-35" edge="1">
          <mxGeometry relative="1" as="geometry">
            <mxPoint x="210" y="518" as="sourcePoint" />
            <mxPoint x="100" y="518" as="targetPoint" />
          </mxGeometry>
        </mxCell>
        <mxCell id="HKzVCvSE7yqwv2zPRG8j-59" value="羧化" style="text;html=1;align=center;verticalAlign=middle;resizable=0;points=[];autosize=1;strokeColor=none;fillColor=none;fontSize=16;fontFamily=var(--font-sans);" parent="1" vertex="1">
          <mxGeometry x="125" y="518" width="60" height="30" as="geometry" />
        </mxCell>
        <mxCell id="St245x_5WnzFI88EoZJ0-1" value="&lt;font style=&quot;font-size: 18px;&quot;&gt;CDP-甘油二酯途径&lt;/font&gt;" style="text;html=1;align=center;verticalAlign=middle;resizable=0;points=[];autosize=1;strokeColor=none;fillColor=none;fontSize=16;" vertex="1" parent="1">
          <mxGeometry x="315" y="90" width="180" height="40" as="geometry" />
        </mxCell>
      </root>
    </mxGraphModel>
  </diagram>
</mxfile>
